<?xml version="1.0" encoding="UTF-8" standalone="no"?>
<svg
   xmlns:dc="http://purl.org/dc/elements/1.1/"
   xmlns:cc="http://creativecommons.org/ns#"
   xmlns:rdf="http://www.w3.org/1999/02/22-rdf-syntax-ns#"
   xmlns:svg="http://www.w3.org/2000/svg"
   xmlns="http://www.w3.org/2000/svg"
   viewBox="0 0 193.33333 164"
   height="164"
   width="193.33333"
   xml:space="preserve"
   id="svg2"
   version="1.1"><metadata
     id="metadata8"><rdf:RDF><cc:Work
         rdf:about=""><dc:format>image/svg+xml</dc:format><dc:type
           rdf:resource="http://purl.org/dc/dcmitype/StillImage" /></cc:Work></rdf:RDF></metadata><defs
     id="defs6"><clipPath
       id="clipPath18"
       clipPathUnits="userSpaceOnUse"><path
         style="clip-rule:evenodd"
         id="path16"
         d="M 0,0 H 145 V 122.74752 H 0 Z" /></clipPath><clipPath
       id="clipPath30"
       clipPathUnits="userSpaceOnUse"><path
         style="clip-rule:evenodd"
         id="path28"
         d="M 0,0 H 145 V 121.31188 H 0 Z" /></clipPath></defs><g
     transform="matrix(1.3333333,0,0,1.3333333,0,4.1e-6)"
     id="g10"><g
       id="g12"><g
         clip-path="url(#clipPath18)"
         id="g14"><g
           transform="scale(0.71782178)"
           id="g20"><path
             id="path22"
             style="fill:#ffffff;fill-opacity:1;fill-rule:nonzero;stroke:none"
             d="M 0,0 H 202 V 171 H 0 Z" /></g></g></g><g
       id="g24"><g
         clip-path="url(#clipPath30)"
         id="g26"><g
           transform="matrix(0,-0.71782178,0.71782178,0,-39.602234,70.296288)"
           id="g32"><path
             id="path34"
             style="fill:#b2c900;fill-opacity:1;fill-rule:nonzero;stroke:none"
             d="m 25.384058,77 c 0,2.922707 -1.461353,4.384064 -4.384058,4.384064 -2.922705,0 -4.384058,-1.461357 -4.384058,-4.384064 0,-2.922707 1.461353,-4.384056 4.384058,-4.384056 2.922705,0 4.384058,1.461349 4.384058,4.384056 z" /></g><g
           transform="matrix(0,-0.71782178,0.71782178,0,-10.889359,99.009163)"
           id="g36"><path
             id="path38"
             style="fill:#b2c900;fill-opacity:1;fill-rule:nonzero;stroke:none"
             d="m 65.384064,77 c 0,2.922707 -1.461354,4.384064 -4.38406,4.384064 -2.922707,0 -4.38406,-1.461357 -4.38406,-4.384064 0,-2.922707 1.461353,-4.384056 4.38406,-4.384056 2.922706,0 4.38406,1.461349 4.38406,4.384056 z" /></g><g
           transform="matrix(0,-0.71782178,0.71782178,0,75.24926,185.14777)"
           id="g40"><path
             id="path42"
             style="fill:#b2c900;fill-opacity:1;fill-rule:nonzero;stroke:none"
             d="m 185.38405,77 c 0,2.922707 -1.46135,4.384064 -4.38405,4.384064 -2.92271,0 -4.38406,-1.461357 -4.38406,-4.384064 0,-2.922707 1.46135,-4.384056 4.38406,-4.384056 2.9227,0 4.38405,1.461349 4.38405,4.384056 z" /></g><g
           transform="matrix(0,-0.71782178,0.71782178,0,11.722029,18.25421)"
           id="g44"><path
             id="path46"
             style="fill:#5571b9;fill-opacity:1;fill-rule:nonzero;stroke:none"
             d="m 24.384058,5 c 0,2.9227057 -1.461353,4.384058 -4.384058,4.384058 -2.922705,0 -4.384058,-1.4613523 -4.384058,-4.384058 0,-2.9227054 1.461353,-4.384058 4.384058,-4.384058 2.922705,0 4.384058,1.4613526 4.384058,4.384058 z" /></g><g
           transform="matrix(0,-0.71782178,0.71782178,0,40.434902,46.967079)"
           id="g48"><path
             id="path50"
             style="fill:#5571b9;fill-opacity:1;fill-rule:nonzero;stroke:none"
             d="m 64.384064,5 c 0,2.9227057 -1.461354,4.384058 -4.38406,4.384058 -2.922707,0 -4.38406,-1.4613523 -4.38406,-4.384058 0,-2.9227054 1.461353,-4.384058 4.38406,-4.384058 2.922706,0 4.38406,1.4613526 4.38406,4.384058 z" /></g><g
           transform="matrix(0,-0.71782178,0.71782178,0,126.57352,133.1057)"
           id="g52"><path
             id="path54"
             style="fill:#5571b9;fill-opacity:1;fill-rule:nonzero;stroke:none"
             d="m 184.38405,5 c 0,2.9227057 -1.46135,4.384058 -4.38405,4.384058 -2.92271,0 -4.38406,-1.4613523 -4.38406,-4.384058 0,-2.9227054 1.46135,-4.384058 4.38406,-4.384058 2.9227,0 4.38405,1.4613526 4.38405,4.384058 z" /></g><g
           transform="matrix(0.71782178,0,0,0.71782178,0.35891089,0.35891089)"
           id="g56"><path
             id="path58"
             style="fill:none;stroke:#000000;stroke-width:1;stroke-linecap:butt;stroke-linejoin:miter;stroke-miterlimit:10;stroke-dasharray:none;stroke-opacity:1"
             d="M 20.5,30 57.59,67.089996" /><path
             id="path60"
             style="fill:#000000;fill-opacity:1;fill-rule:nonzero;stroke:none"
             d="M 59.709999,69.209999 55.939999,67.32 57.59,67.089996 57.82,65.440002 Z" /><path
             id="path62"
             style="fill:none;stroke:#000000;stroke-width:1;stroke-linecap:butt;stroke-linejoin:miter;stroke-miterlimit:10;stroke-dasharray:none;stroke-opacity:1"
             d="M 59.709999,69.209999 55.939999,67.32 57.59,67.089996 57.82,65.440002 Z" /><path
             id="path64"
             style="fill:none;stroke:#000000;stroke-width:1;stroke-linecap:butt;stroke-linejoin:miter;stroke-miterlimit:10;stroke-dasharray:none;stroke-opacity:1"
             d="M 60.5,30 23.41,67.089996" /><path
             id="path66"
             style="fill:#000000;fill-opacity:1;fill-rule:nonzero;stroke:none"
             d="M 21.290001,69.209999 23.18,65.440002 23.41,67.089996 25.059999,67.32 Z" /><path
             id="path68"
             style="fill:none;stroke:#000000;stroke-width:1;stroke-linecap:butt;stroke-linejoin:miter;stroke-miterlimit:10;stroke-dasharray:none;stroke-opacity:1"
             d="M 21.290001,69.209999 23.18,65.440002 23.41,67.089996 25.059999,67.32 Z" /><path
             id="path70"
             style="fill:none;stroke:#000000;stroke-width:1;stroke-linecap:butt;stroke-linejoin:miter;stroke-miterlimit:10;stroke-dasharray:none;stroke-opacity:1"
             d="M 60.5,30 97.589996,67.089996" /><path
             id="path72"
             style="fill:#000000;fill-opacity:1;fill-rule:nonzero;stroke:none"
             d="M 99.709999,69.209999 95.940002,67.32 97.589996,67.089996 97.82,65.440002 Z" /><path
             id="path74"
             style="fill:none;stroke:#000000;stroke-width:1;stroke-linecap:butt;stroke-linejoin:miter;stroke-miterlimit:10;stroke-dasharray:none;stroke-opacity:1"
             d="M 99.709999,69.209999 95.940002,67.32 97.589996,67.089996 97.82,65.440002 Z" /><path
             id="path76"
             style="fill:none;stroke:#000000;stroke-width:1;stroke-linecap:butt;stroke-linejoin:miter;stroke-miterlimit:10;stroke-dasharray:none;stroke-opacity:1"
             d="M 100.5,30 63.41,67.089996" /><path
             id="path78"
             style="fill:#000000;fill-opacity:1;fill-rule:nonzero;stroke:none"
             d="M 61.290001,69.209999 63.18,65.440002 63.41,67.089996 65.059998,67.32 Z" /><path
             id="path80"
             style="fill:none;stroke:#000000;stroke-width:1;stroke-linecap:butt;stroke-linejoin:miter;stroke-miterlimit:10;stroke-dasharray:none;stroke-opacity:1"
             d="M 61.290001,69.209999 63.18,65.440002 63.41,67.089996 65.059998,67.32 Z" /><path
             id="path82"
             style="fill:none;stroke:#000000;stroke-width:1;stroke-linecap:butt;stroke-linejoin:miter;stroke-miterlimit:10;stroke-dasharray:none;stroke-opacity:1"
             d="m 100.5,30 37.09,37.089996" /><path
             id="path84"
             style="fill:#000000;fill-opacity:1;fill-rule:nonzero;stroke:none"
             d="M 139.71001,69.209999 135.94,67.32 l 1.65,-0.230004 0.23001,-1.649994 z" /><path
             id="path86"
             style="fill:none;stroke:#000000;stroke-width:1;stroke-linecap:butt;stroke-linejoin:miter;stroke-miterlimit:10;stroke-dasharray:none;stroke-opacity:1"
             d="M 139.71001,69.209999 135.94,67.32 l 1.65,-0.230004 0.23001,-1.649994 z" /><path
             id="path88"
             style="fill:none;stroke:#000000;stroke-width:1;stroke-linecap:butt;stroke-linejoin:miter;stroke-miterlimit:10;stroke-dasharray:none;stroke-opacity:1"
             d="M 140.5,30 103.41,67.089996" /><path
             id="path90"
             style="fill:#000000;fill-opacity:1;fill-rule:nonzero;stroke:none"
             d="m 101.29,69.209999 1.89,-3.769997 0.23,1.649994 1.65,0.230004 z" /><path
             id="path92"
             style="fill:none;stroke:#000000;stroke-width:1;stroke-linecap:butt;stroke-linejoin:miter;stroke-miterlimit:10;stroke-dasharray:none;stroke-opacity:1"
             d="m 101.29,69.209999 1.89,-3.769997 0.23,1.649994 1.65,0.230004 z" /><path
             id="path94"
             style="fill:none;stroke:#000000;stroke-width:1;stroke-linecap:butt;stroke-linejoin:miter;stroke-miterlimit:10;stroke-dasharray:none;stroke-opacity:1"
             d="m 141,30 37.09,37.089996" /><path
             id="path96"
             style="fill:#000000;fill-opacity:1;fill-rule:nonzero;stroke:none"
             d="M 180.21001,69.209999 176.44,67.32 l 1.65,-0.230004 0.23001,-1.649994 z" /><path
             id="path98"
             style="fill:none;stroke:#000000;stroke-width:1;stroke-linecap:butt;stroke-linejoin:miter;stroke-miterlimit:10;stroke-dasharray:none;stroke-opacity:1"
             d="M 180.21001,69.209999 176.44,67.32 l 1.65,-0.230004 0.23001,-1.649994 z" /><path
             id="path100"
             style="fill:none;stroke:#000000;stroke-width:1;stroke-linecap:butt;stroke-linejoin:miter;stroke-miterlimit:10;stroke-dasharray:none;stroke-opacity:1"
             d="M 181,30 143.91,67.089996" /><path
             id="path102"
             style="fill:#000000;fill-opacity:1;fill-rule:nonzero;stroke:none"
             d="m 141.78999,69.209999 1.89,-3.769997 0.23001,1.649994 1.65,0.230004 z" /><path
             id="path104"
             style="fill:none;stroke:#000000;stroke-width:1;stroke-linecap:butt;stroke-linejoin:miter;stroke-miterlimit:10;stroke-dasharray:none;stroke-opacity:1"
             d="m 141.78999,69.209999 1.89,-3.769997 0.23001,1.649994 1.65,0.230004 z" /><path
             id="path106"
             style="fill:#b2c900;fill-opacity:1;fill-rule:nonzero;stroke:none"
             d="m 100.49375,75.500038 0.99993,-0.0125 0.0125,0.999924 -0.99992,0.0125 m 4.98711,-1.062416 0.99993,-0.01251 0.0125,0.999924 -0.99992,0.0125 m 4.98711,-1.062423 0.99992,-0.0125 0.0125,0.999924 -0.99992,0.0125 m 4.98711,-1.062416 0.99992,-0.0125 0.0125,0.999924 -0.99993,0.0125 m 4.98712,-1.062416 0.99992,-0.01251 0.0125,0.999924 -0.99993,0.0125 m 4.98712,-1.062424 0.99992,-0.0125 0.0125,0.999924 -0.99992,0.0125 m 4.98709,-1.062416 0.99993,-0.0125 0.0125,0.999923 -0.99992,0.0125 m 4.9871,-1.062423 0.99993,-0.0125 0.0125,0.999923 -0.99993,0.0125 m 4.9871,-1.062416 0.003,-3.8e-5 0.0125,0.999924 -0.003,3.8e-5" /><path
             id="path108"
             style="fill:#5571b9;fill-opacity:1;fill-rule:nonzero;stroke:none"
             d="m 100,5.5 h 1 v 1 h -1 m 5,-1 h 1 v 1 h -1 m 5,-1 h 1 v 1 h -1 m 5,-1 h 1 v 1 h -1 m 5,-1 h 1 v 1 h -1 m 5,-1 h 1 v 1 h -1 m 5,-1 h 1 v 1 h -1 m 5,-1 h 1 v 1 h -1" /><path
             id="path110"
             style="fill:none;stroke:#000000;stroke-width:1;stroke-linecap:butt;stroke-linejoin:miter;stroke-miterlimit:10;stroke-dasharray:none;stroke-opacity:1"
             d="M 25,77 H 51.880001" /><path
             id="path112"
             style="fill:#000000;fill-opacity:1;fill-rule:nonzero;stroke:none"
             d="m 54.880001,77 -4,1.330002 1,-1.330002 -1,-1.330002 z" /><path
             id="path114"
             style="fill:none;stroke:#000000;stroke-width:1;stroke-linecap:butt;stroke-linejoin:miter;stroke-miterlimit:10;stroke-dasharray:none;stroke-opacity:1"
             d="m 54.880001,77 -4,1.330002 1,-1.330002 -1,-1.330002 z" /></g><g
           transform="matrix(0,-0.71782178,0.71782178,0,-89.490845,120.18491)"
           id="g116"><path
             id="path118"
             style="fill:#ec8f1b;fill-opacity:1;fill-rule:nonzero;stroke:none"
             d="m 25.384058,146 c 0,2.9227 -1.461353,4.38405 -4.384058,4.38405 -2.922705,0 -4.384058,-1.46135 -4.384058,-4.38405 0,-2.92271 1.461353,-4.38406 4.384058,-4.38406 2.922705,0 4.384058,1.46135 4.384058,4.38406 z" /></g><g
           transform="matrix(0,-0.71782178,0.71782178,0,-60.777969,148.89778)"
           id="g120"><path
             id="path122"
             style="fill:#ec8f1b;fill-opacity:1;fill-rule:nonzero;stroke:none"
             d="m 65.384064,146 c 0,2.9227 -1.461354,4.38405 -4.38406,4.38405 -2.922707,0 -4.38406,-1.46135 -4.38406,-4.38405 0,-2.92271 1.461353,-4.38406 4.38406,-4.38406 2.922706,0 4.38406,1.46135 4.38406,4.38406 z" /></g><g
           transform="matrix(0,-0.71782178,0.71782178,0,25.360645,235.03639)"
           id="g124"><path
             id="path126"
             style="fill:#ec8f1b;fill-opacity:1;fill-rule:nonzero;stroke:none"
             d="m 185.38405,146 c 0,2.9227 -1.46135,4.38405 -4.38405,4.38405 -2.92271,0 -4.38406,-1.46135 -4.38406,-4.38405 0,-2.92271 1.46135,-4.38406 4.38406,-4.38406 2.9227,0 4.38405,1.46135 4.38405,4.38406 z" /></g><g
           transform="matrix(0.71782178,0,0,0.71782178,0.35891089,0.35891089)"
           id="g128"><path
             id="path130"
             style="fill:#ec8f1b;fill-opacity:1;fill-rule:nonzero;stroke:none"
             d="m 100,146 h 1 v 1 h -1 m 5,-1 h 1 v 1 h -1 m 5,-1 h 1 v 1 h -1 m 5,-1 h 1 v 1 h -1 m 5,-1 h 1 v 1 h -1 m 5,-1 h 1 v 1 h -1 m 5,-1 h 1 v 1 h -1 m 5,-1 h 1 v 1 h -1" /><path
             id="path132"
             style="fill:none;stroke:#000000;stroke-width:1;stroke-linecap:butt;stroke-linejoin:miter;stroke-miterlimit:10;stroke-dasharray:none;stroke-opacity:1"
             d="m 144.31,76.650002 h 27.05" /><path
             id="path134"
             style="fill:#000000;fill-opacity:1;fill-rule:nonzero;stroke:none"
             d="m 174.36,76.650002 -4,1.330001 1,-1.330001 -1,-1.330002 z" /><path
             id="path136"
             style="fill:none;stroke:#000000;stroke-width:1;stroke-linecap:butt;stroke-linejoin:miter;stroke-miterlimit:10;stroke-dasharray:none;stroke-opacity:1"
             d="m 174.36,76.650002 -4,1.330001 1,-1.330001 -1,-1.330002 z" /><path
             id="path138"
             style="fill:none;stroke:#000000;stroke-width:1;stroke-linecap:butt;stroke-linejoin:miter;stroke-miterlimit:10;stroke-dasharray:none;stroke-opacity:1"
             d="M 65.300003,76.400002 H 92.379997" /><path
             id="path140"
             style="fill:#000000;fill-opacity:1;fill-rule:nonzero;stroke:none"
             d="m 95.379997,76.400002 -4,1.330001 1,-1.330001 -1,-1.330002 z" /><path
             id="path142"
             style="fill:none;stroke:#000000;stroke-width:1;stroke-linecap:butt;stroke-linejoin:miter;stroke-miterlimit:10;stroke-dasharray:none;stroke-opacity:1"
             d="m 95.379997,76.400002 -4,1.330001 1,-1.330001 -1,-1.330002 z" /><path
             id="path144"
             style="fill:none;stroke:#000000;stroke-width:1;stroke-linecap:butt;stroke-linejoin:miter;stroke-miterlimit:10;stroke-dasharray:none;stroke-opacity:1"
             d="m 20.5,101 37.09,37.09" /><path
             id="path146"
             style="fill:#000000;fill-opacity:1;fill-rule:nonzero;stroke:none"
             d="m 59.709999,140.21001 -3.77,-1.89 L 57.59,138.09 l 0.23,-1.65 z" /><path
             id="path148"
             style="fill:none;stroke:#000000;stroke-width:1;stroke-linecap:butt;stroke-linejoin:miter;stroke-miterlimit:10;stroke-dasharray:none;stroke-opacity:1"
             d="m 59.709999,140.21001 -3.77,-1.89 L 57.59,138.09 l 0.23,-1.65 z" /><path
             id="path150"
             style="fill:none;stroke:#000000;stroke-width:1;stroke-linecap:butt;stroke-linejoin:miter;stroke-miterlimit:10;stroke-dasharray:none;stroke-opacity:1"
             d="M 60.5,101 23.41,138.09" /><path
             id="path152"
             style="fill:#000000;fill-opacity:1;fill-rule:nonzero;stroke:none"
             d="M 21.290001,140.21001 23.18,136.44 l 0.23,1.65 1.649999,0.23001 z" /><path
             id="path154"
             style="fill:none;stroke:#000000;stroke-width:1;stroke-linecap:butt;stroke-linejoin:miter;stroke-miterlimit:10;stroke-dasharray:none;stroke-opacity:1"
             d="M 21.290001,140.21001 23.18,136.44 l 0.23,1.65 1.649999,0.23001 z" /><path
             id="path156"
             style="fill:none;stroke:#000000;stroke-width:1;stroke-linecap:butt;stroke-linejoin:miter;stroke-miterlimit:10;stroke-dasharray:none;stroke-opacity:1"
             d="m 60.5,101 37.089996,37.09" /><path
             id="path158"
             style="fill:#000000;fill-opacity:1;fill-rule:nonzero;stroke:none"
             d="m 99.709999,140.21001 -3.769997,-1.89 L 97.589996,138.09 97.82,136.44 Z" /><path
             id="path160"
             style="fill:none;stroke:#000000;stroke-width:1;stroke-linecap:butt;stroke-linejoin:miter;stroke-miterlimit:10;stroke-dasharray:none;stroke-opacity:1"
             d="m 99.709999,140.21001 -3.769997,-1.89 L 97.589996,138.09 97.82,136.44 Z" /><path
             id="path162"
             style="fill:none;stroke:#000000;stroke-width:1;stroke-linecap:butt;stroke-linejoin:miter;stroke-miterlimit:10;stroke-dasharray:none;stroke-opacity:1"
             d="M 100.5,101 63.41,138.09" /><path
             id="path164"
             style="fill:#000000;fill-opacity:1;fill-rule:nonzero;stroke:none"
             d="M 61.290001,140.21001 63.18,136.44 l 0.23,1.65 1.649998,0.23001 z" /><path
             id="path166"
             style="fill:none;stroke:#000000;stroke-width:1;stroke-linecap:butt;stroke-linejoin:miter;stroke-miterlimit:10;stroke-dasharray:none;stroke-opacity:1"
             d="M 61.290001,140.21001 63.18,136.44 l 0.23,1.65 1.649998,0.23001 z" /><path
             id="path168"
             style="fill:none;stroke:#000000;stroke-width:1;stroke-linecap:butt;stroke-linejoin:miter;stroke-miterlimit:10;stroke-dasharray:none;stroke-opacity:1"
             d="m 100.5,101 37.09,37.09" /><path
             id="path170"
             style="fill:#000000;fill-opacity:1;fill-rule:nonzero;stroke:none"
             d="m 139.71001,140.21001 -3.77001,-1.89 1.65,-0.23001 0.23001,-1.65 z" /><path
             id="path172"
             style="fill:none;stroke:#000000;stroke-width:1;stroke-linecap:butt;stroke-linejoin:miter;stroke-miterlimit:10;stroke-dasharray:none;stroke-opacity:1"
             d="m 139.71001,140.21001 -3.77001,-1.89 1.65,-0.23001 0.23001,-1.65 z" /><path
             id="path174"
             style="fill:none;stroke:#000000;stroke-width:1;stroke-linecap:butt;stroke-linejoin:miter;stroke-miterlimit:10;stroke-dasharray:none;stroke-opacity:1"
             d="m 140.5,101 -37.09,37.09" /><path
             id="path176"
             style="fill:#000000;fill-opacity:1;fill-rule:nonzero;stroke:none"
             d="m 101.29,140.21001 1.89,-3.77001 0.23,1.65 1.65,0.23001 z" /><path
             id="path178"
             style="fill:none;stroke:#000000;stroke-width:1;stroke-linecap:butt;stroke-linejoin:miter;stroke-miterlimit:10;stroke-dasharray:none;stroke-opacity:1"
             d="m 101.29,140.21001 1.89,-3.77001 0.23,1.65 1.65,0.23001 z" /><path
             id="path180"
             style="fill:none;stroke:#000000;stroke-width:1;stroke-linecap:butt;stroke-linejoin:miter;stroke-miterlimit:10;stroke-dasharray:none;stroke-opacity:1"
             d="m 141,101 37.09,37.09" /><path
             id="path182"
             style="fill:#000000;fill-opacity:1;fill-rule:nonzero;stroke:none"
             d="m 180.21001,140.21001 -3.77001,-1.89 1.65,-0.23001 0.23001,-1.65 z" /><path
             id="path184"
             style="fill:none;stroke:#000000;stroke-width:1;stroke-linecap:butt;stroke-linejoin:miter;stroke-miterlimit:10;stroke-dasharray:none;stroke-opacity:1"
             d="m 180.21001,140.21001 -3.77001,-1.89 1.65,-0.23001 0.23001,-1.65 z" /><path
             id="path186"
             style="fill:none;stroke:#000000;stroke-width:1;stroke-linecap:butt;stroke-linejoin:miter;stroke-miterlimit:10;stroke-dasharray:none;stroke-opacity:1"
             d="m 181,101 -37.09,37.09" /><path
             id="path188"
             style="fill:#000000;fill-opacity:1;fill-rule:nonzero;stroke:none"
             d="m 141.78999,140.21001 1.89,-3.77001 0.23001,1.65 1.65,0.23001 z" /><path
             id="path190"
             style="fill:none;stroke:#000000;stroke-width:1;stroke-linecap:butt;stroke-linejoin:miter;stroke-miterlimit:10;stroke-dasharray:none;stroke-opacity:1"
             d="m 141.78999,140.21001 1.89,-3.77001 0.23001,1.65 1.65,0.23001 z" /><path
             id="path192"
             style="fill:none;stroke:#000000;stroke-width:1;stroke-linecap:butt;stroke-linejoin:miter;stroke-miterlimit:10;stroke-dasharray:none;stroke-opacity:1"
             d="M 24.709999,145.88 H 52.02" /><path
             id="path194"
             style="fill:#000000;fill-opacity:1;fill-rule:nonzero;stroke:none"
             d="m 55.02,145.88 -4,1.33001 1,-1.33001 -1,-1.33 z" /><path
             id="path196"
             style="fill:none;stroke:#000000;stroke-width:1;stroke-linecap:butt;stroke-linejoin:miter;stroke-miterlimit:10;stroke-dasharray:none;stroke-opacity:1"
             d="m 55.02,145.88 -4,1.33001 1,-1.33001 -1,-1.33 z" /><path
             id="path198"
             style="fill:none;stroke:#000000;stroke-width:1;stroke-linecap:butt;stroke-linejoin:miter;stroke-miterlimit:10;stroke-dasharray:none;stroke-opacity:1"
             d="M 65.300003,145.89999 H 92.379997" /><path
             id="path200"
             style="fill:#000000;fill-opacity:1;fill-rule:nonzero;stroke:none"
             d="m 95.379997,145.89999 -4,1.33001 1,-1.33001 -1,-1.32998 z" /><path
             id="path202"
             style="fill:none;stroke:#000000;stroke-width:1;stroke-linecap:butt;stroke-linejoin:miter;stroke-miterlimit:10;stroke-dasharray:none;stroke-opacity:1"
             d="m 95.379997,145.89999 -4,1.33001 1,-1.33001 -1,-1.32998 z" /><path
             id="path204"
             style="fill:none;stroke:#000000;stroke-width:1;stroke-linecap:butt;stroke-linejoin:miter;stroke-miterlimit:10;stroke-dasharray:none;stroke-opacity:1"
             d="m 145.31,145.64999 h 27.05" /><path
             id="path206"
             style="fill:#000000;fill-opacity:1;fill-rule:nonzero;stroke:none"
             d="m 175.36,145.64999 -4,1.33001 1,-1.33001 -1,-1.32998 z" /><path
             id="path208"
             style="fill:none;stroke:#000000;stroke-width:1;stroke-linecap:butt;stroke-linejoin:miter;stroke-miterlimit:10;stroke-dasharray:none;stroke-opacity:1"
             d="m 175.36,145.64999 -4,1.33001 1,-1.33001 -1,-1.32998 z" /></g><g
           transform="matrix(0.71782178,0,0,0.71782178,11.485148,5.7425742)"
           id="g210"><text
             id="text214"
             style="font-style:italic;font-variant:normal;font-size:12px;font-family:'Times New Roman';-inkscape-font-specification:TimesNewRomanPS-ItalicMT;writing-mode:lr-tb;fill:#000000;fill-opacity:1;fill-rule:nonzero;stroke:none"
             transform="translate(0.03125,11)"><tspan
               id="tspan212"
               y="0"
               x="0">x</tspan></text>
<text
             id="text218"
             style="font-style:italic;font-variant:normal;font-size:8.32999992px;font-family:'Times New Roman';-inkscape-font-specification:TimesNewRomanPS-ItalicMT;writing-mode:lr-tb;fill:#000000;fill-opacity:1;fill-rule:nonzero;stroke:none"
             transform="translate(5.34375,14)"><tspan
               id="tspan216"
               y="0"
               x="0">T</tspan></text>
</g><g
           transform="matrix(0.71782178,0,0,0.71782178,38.044556,5.7425742)"
           id="g220"><text
             id="text224"
             style="font-style:italic;font-variant:normal;font-size:12px;font-family:'Times New Roman';-inkscape-font-specification:TimesNewRomanPS-ItalicMT;writing-mode:lr-tb;fill:#000000;fill-opacity:1;fill-rule:nonzero;stroke:none"
             transform="translate(0.859375,11)"><tspan
               id="tspan222"
               y="0"
               x="0">x</tspan></text>
<text
             id="text228"
             style="font-style:italic;font-variant:normal;font-size:8.32999992px;font-family:'Times New Roman';-inkscape-font-specification:TimesNewRomanPS-ItalicMT;writing-mode:lr-tb;fill:#000000;fill-opacity:1;fill-rule:nonzero;stroke:none"
             transform="translate(6.171875,14)"><tspan
               id="tspan226"
               y="0"
               x="0 4.0144958 6.7884369">T­1</tspan></text>
</g><g
           transform="matrix(0.71782178,0,0,0.71782178,126.33663,5.7425742)"
           id="g230"><text
             id="text234"
             style="font-style:italic;font-variant:normal;font-size:12px;font-family:'Times New Roman';-inkscape-font-specification:TimesNewRomanPS-ItalicMT;writing-mode:lr-tb;fill:#000000;fill-opacity:1;fill-rule:nonzero;stroke:none"
             transform="translate(0.265625,11)"><tspan
               id="tspan232"
               y="0"
               x="0">x</tspan></text>
<text
             id="text238"
             style="font-style:italic;font-variant:normal;font-size:8.32999992px;font-family:'Times New Roman';-inkscape-font-specification:TimesNewRomanPS-ItalicMT;writing-mode:lr-tb;fill:#000000;fill-opacity:1;fill-rule:nonzero;stroke:none"
             transform="translate(5.578125,14)"><tspan
               id="tspan236"
               y="0"
               x="0">1</tspan></text>
</g><g
           transform="matrix(0.71782178,0,0,0.71782178,11.485148,58.143562)"
           id="g240"><text
             id="text244"
             style="font-style:italic;font-variant:normal;font-size:12px;font-family:'Times New Roman';-inkscape-font-specification:TimesNewRomanPS-ItalicMT;writing-mode:lr-tb;fill:#000000;fill-opacity:1;fill-rule:nonzero;stroke:none"
             transform="translate(0.59375,11)"><tspan
               id="tspan242"
               y="0"
               x="0">z</tspan></text>
<text
             id="text248"
             style="font-style:italic;font-variant:normal;font-size:8.32999992px;font-family:'Times New Roman';-inkscape-font-specification:TimesNewRomanPS-ItalicMT;writing-mode:lr-tb;fill:#000000;fill-opacity:1;fill-rule:nonzero;stroke:none"
             transform="translate(5.25,14)"><tspan
               id="tspan246"
               y="0"
               x="0">1</tspan></text>
</g><g
           transform="matrix(0.71782178,0,0,0.71782178,40.198021,58.143562)"
           id="g250"><text
             id="text254"
             style="font-style:italic;font-variant:normal;font-size:12px;font-family:'Times New Roman';-inkscape-font-specification:TimesNewRomanPS-ItalicMT;writing-mode:lr-tb;fill:#000000;fill-opacity:1;fill-rule:nonzero;stroke:none"
             transform="translate(0.59375,11)"><tspan
               id="tspan252"
               y="0"
               x="0">z</tspan></text>
<text
             id="text258"
             style="font-style:italic;font-variant:normal;font-size:8.32999992px;font-family:'Times New Roman';-inkscape-font-specification:TimesNewRomanPS-ItalicMT;writing-mode:lr-tb;fill:#000000;fill-opacity:1;fill-rule:nonzero;stroke:none"
             transform="translate(5.25,14)"><tspan
               id="tspan256"
               y="0"
               x="0">2</tspan></text>
</g><g
           transform="matrix(0.71782178,0,0,0.71782178,125.61881,58.143562)"
           id="g260"><text
             id="text264"
             style="font-style:italic;font-variant:normal;font-size:12px;font-family:'Times New Roman';-inkscape-font-specification:TimesNewRomanPS-ItalicMT;writing-mode:lr-tb;fill:#000000;fill-opacity:1;fill-rule:nonzero;stroke:none"
             transform="translate(0.359375,11)"><tspan
               id="tspan262"
               y="0"
               x="0">z</tspan></text>
<text
             id="text268"
             style="font-style:italic;font-variant:normal;font-size:8.32999992px;font-family:'Times New Roman';-inkscape-font-specification:TimesNewRomanPS-ItalicMT;writing-mode:lr-tb;fill:#000000;fill-opacity:1;fill-rule:nonzero;stroke:none"
             transform="translate(5.015625,14)"><tspan
               id="tspan266"
               y="0"
               x="0">T</tspan></text>
</g><g
           transform="matrix(0.71782178,0,0,0.71782178,5.7425742,109.10891)"
           id="g270"><text
             id="text274"
             style="font-style:italic;font-variant:normal;font-size:12px;font-family:'Times New Roman';-inkscape-font-specification:TimesNewRomanPS-ItalicMT;writing-mode:lr-tb;fill:#000000;fill-opacity:1;fill-rule:nonzero;stroke:none"
             transform="translate(0.40625,11)"><tspan
               id="tspan272"
               y="0"
               x="0 5.3261719">y'</tspan></text>
<text
             id="text278"
             style="font-style:italic;font-variant:normal;font-size:10px;font-family:'Times New Roman';-inkscape-font-specification:TimesNewRomanPS-ItalicMT;writing-mode:lr-tb;fill:#000000;fill-opacity:1;fill-rule:nonzero;stroke:none"
             transform="translate(8.296875,14)"><tspan
               id="tspan276"
               y="0"
               x="0 5.5615234 12.30957">T+1</tspan></text>
<text
             id="text282"
             style="font-variant:normal;font-weight:normal;font-size:12px;font-family:'Times New Roman';-inkscape-font-specification:TimesNewRomanPSMT;writing-mode:lr-tb;fill:#000000;fill-opacity:1;fill-rule:nonzero;stroke:none"
             transform="translate(25.59375,11)"><tspan
               id="tspan280"
               y="0"
               x="0"> </tspan></text>
</g><g
           transform="matrix(0.71782178,0,0,0.71782178,33.737625,109.10891)"
           id="g284"><text
             id="text288"
             style="font-style:italic;font-variant:normal;font-size:12px;font-family:'Times New Roman';-inkscape-font-specification:TimesNewRomanPS-ItalicMT;writing-mode:lr-tb;fill:#000000;fill-opacity:1;fill-rule:nonzero;stroke:none"
             transform="translate(0.40625,11)"><tspan
               id="tspan286"
               y="0"
               x="0 5.3261719">y'</tspan></text>
<text
             id="text292"
             style="font-style:italic;font-variant:normal;font-size:10px;font-family:'Times New Roman';-inkscape-font-specification:TimesNewRomanPS-ItalicMT;writing-mode:lr-tb;fill:#000000;fill-opacity:1;fill-rule:nonzero;stroke:none"
             transform="translate(8.296875,14)"><tspan
               id="tspan290"
               y="0"
               x="0 5.5615234 12.30957">T+2</tspan></text>
<text
             id="text296"
             style="font-variant:normal;font-weight:normal;font-size:12px;font-family:'Times New Roman';-inkscape-font-specification:TimesNewRomanPSMT;writing-mode:lr-tb;fill:#000000;fill-opacity:1;fill-rule:nonzero;stroke:none"
             transform="translate(25.59375,11)"><tspan
               id="tspan294"
               y="0"
               x="0"> </tspan></text>
</g><g
           transform="matrix(0.71782178,0,0,0.71782178,123.46535,109.10891)"
           id="g298"><text
             id="text302"
             style="font-style:italic;font-variant:normal;font-size:12px;font-family:'Times New Roman';-inkscape-font-specification:TimesNewRomanPS-ItalicMT;writing-mode:lr-tb;fill:#000000;fill-opacity:1;fill-rule:nonzero;stroke:none"
             transform="translate(0.65625,11)"><tspan
               id="tspan300"
               y="0"
               x="0 5.3261719">y'</tspan></text>
<text
             id="text306"
             style="font-style:italic;font-variant:normal;font-size:8.32999992px;font-family:'Times New Roman';-inkscape-font-specification:TimesNewRomanPS-ItalicMT;writing-mode:lr-tb;fill:#000000;fill-opacity:1;fill-rule:nonzero;stroke:none"
             transform="translate(8.546875,14)"><tspan
               id="tspan304"
               y="0"
               x="0 4.1649933">2T</tspan></text>
</g></g></g></g></svg>